<svg xmlns="http://www.w3.org/2000/svg" width="512" height="512" viewBox="0 0 512 512">
  <defs>
    <linearGradient id="bg" x1="0%" y1="0%" x2="100%" y2="100%">
      <stop offset="0%" style="stop-color:#7C3AED"/>
      <stop offset="100%" style="stop-color:#6D28D9"/>
    </linearGradient>
  </defs>
  <rect width="512" height="512" rx="96" fill="url(#bg)"/>
  <!-- Brain icon simplified -->
  <g transform="translate(256,256)">
    <!-- Left hemisphere -->
    <path d="M-20,-60 C-60,-60 -90,-30 -90,10 C-90,50 -60,80 -20,80 C-10,80 0,75 5,65 C10,75 20,80 30,80 C50,80 65,65 65,45 C65,30 55,15 40,10 C45,-20 30,-50 0,-60 Z" fill="none" stroke="white" stroke-width="8" stroke-linecap="round"/>
    <!-- Right hemisphere -->
    <path d="M20,-60 C60,-60 90,-30 90,10 C90,50 60,80 20,80 C10,80 0,75 -5,65 C-10,75 -20,80 -30,80 C-50,80 -65,65 -65,45 C-65,30 -55,15 -40,10 C-45,-20 -30,-50 0,-60 Z" fill="none" stroke="white" stroke-width="8" stroke-linecap="round"/>
    <!-- Center line -->
    <line x1="0" y1="-60" x2="0" y2="80" stroke="white" stroke-width="6" stroke-linecap="round" opacity="0.3"/>
    <!-- Neural dots -->
    <circle cx="-35" cy="-15" r="5" fill="white" opacity="0.6"/>
    <circle cx="35" cy="-15" r="5" fill="white" opacity="0.6"/>
    <circle cx="-25" cy="25" r="4" fill="white" opacity="0.4"/>
    <circle cx="25" cy="25" r="4" fill="white" opacity="0.4"/>
    <circle cx="0" cy="-40" r="4" fill="white" opacity="0.5"/>
    <!-- Sparkle accent -->
    <circle cx="-50" cy="-70" r="8" fill="#A78BFA" opacity="0.8"/>
    <circle cx="50" cy="-70" r="6" fill="#A78BFA" opacity="0.6"/>
  </g>
</svg>
